<svg width="538" height="749" viewBox="0 0 538 749" fill="none" xmlns="http://www.w3.org/2000/svg">
<path d="M122.629 618.406C-29.3935 618.406 -152.546 493.986 -152.546 340.464C-152.546 186.941 -29.287 62.5214 122.629 62.5214C274.544 62.5214 397.803 186.941 397.803 340.464C397.909 493.986 274.651 618.406 122.629 618.406ZM130.619 -62C-103.434 -62 -279 116.366 -279 336.306C-279 694.254 128.381 835 128.381 835C128.381 835 538 685.23 538 336.306C538 114.236 364.671 -62 130.619 -62Z" fill="#414042"/>
<path d="M215.101 308.535C170.94 308.535 135.093 272.729 135.093 228.582C135.093 221.869 137.36 215.969 138.872 209.764C138.872 208.848 138.548 207.933 138.548 207.017C133.473 206.407 128.291 206 123 206C51.1977 206 -7 264.185 -7 336C-7 407.815 51.1977 466 123 466C194.802 466 253 407.815 253 336C253 323.793 251.164 312.197 248.033 301.008C237.991 305.585 226.978 308.535 215.101 308.535Z" fill="#414042"/>
</svg>
