<svg width="19" height="19" viewBox="0 0 19 19" fill="none" xmlns="http://www.w3.org/2000/svg">
<path d="M8.90625 14.25H10.0938V15.4375H8.90625V14.25Z" fill="#E9E9E9"/>
<path d="M3.5625 8.90625H4.75V10.0938H3.5625V8.90625Z" fill="#E9E9E9"/>
<path d="M14.25 8.90625H15.4375V10.0938H14.25V8.90625Z" fill="#E9E9E9"/>
<path d="M15.3779 3.62217C13.9674 2.20364 12.0896 1.34589 10.0938 1.20854V1.1875H8.90633V4.75H10.0938V2.39994C13.7458 2.70268 16.6251 5.77121 16.6251 9.5C16.6251 13.4287 13.4288 16.625 9.50008 16.625C5.57135 16.625 2.37508 13.4287 2.37508 9.5C2.37426 8.56266 2.55878 7.63441 2.91803 6.76864C3.27727 5.90287 3.80415 5.11667 4.46835 4.45528L8.75908 9.86879L9.68971 9.13121L4.62391 2.73971L4.15611 3.1327C2.87317 4.20946 1.94544 5.64866 1.49447 7.26171C1.04351 8.87477 1.09035 10.5864 1.62885 12.1724C2.16736 13.7584 3.17241 15.1447 4.51231 16.1497C5.85221 17.1547 7.46445 17.7315 9.13777 17.8044C10.8111 17.8774 12.4674 17.4432 13.8897 16.5587C15.3121 15.6742 16.434 14.3807 17.1086 12.8476C17.7831 11.3145 17.9788 9.61345 17.67 7.96725C17.3612 6.32106 16.5623 4.80654 15.378 3.62217H15.3779Z" fill="#E9E9E9"/>
</svg>
