<svg width="10" height="10" viewBox="0 0 10 10" fill="none" xmlns="http://www.w3.org/2000/svg">
<path d="M5.9812 5.00082L9.37981 1.60249C9.50631 1.47152 9.5763 1.2961 9.57472 1.11402C9.57314 0.931937 9.50011 0.757761 9.37135 0.629006C9.24259 0.50025 9.06842 0.427216 8.88634 0.425634C8.70426 0.424052 8.52884 0.494048 8.39787 0.620546L4.99926 4.01888L1.60092 0.620546C1.53648 0.556017 1.45994 0.504825 1.3757 0.469898C1.29145 0.43497 1.20115 0.416992 1.10995 0.416992C1.01875 0.416992 0.928447 0.43497 0.844202 0.469898C0.759956 0.504825 0.683423 0.556017 0.618978 0.620546C0.554448 0.684992 0.503256 0.761525 0.468329 0.845771C0.433401 0.930016 0.415423 1.02032 0.415423 1.11152C0.415423 1.20272 0.433401 1.29302 0.468329 1.37727C0.503256 1.46151 0.554448 1.53805 0.618978 1.60249L4.01731 5.00082L0.6112 8.40721C0.513877 8.50424 0.447559 8.62799 0.420654 8.76276C0.393749 8.89753 0.40747 9.03725 0.460075 9.16421C0.512681 9.29118 0.601803 9.39966 0.716141 9.4759C0.830478 9.55215 0.964882 9.59273 1.10231 9.59249C1.28009 9.59249 1.45787 9.52471 1.59342 9.38916L4.99953 5.98277L8.39787 9.3811C8.4623 9.44567 8.53886 9.49687 8.62314 9.53176C8.70742 9.56666 8.79776 9.58456 8.88898 9.58443C9.02629 9.58441 9.16051 9.54367 9.27467 9.46738C9.38884 9.39109 9.47782 9.28267 9.53038 9.15582C9.58294 9.02896 9.59672 8.88938 9.56997 8.7547C9.54321 8.62002 9.47714 8.49629 9.38009 8.39916L5.9812 5.00082Z" fill="#414042"/>
</svg>
