<svg width="19" height="19" viewBox="0 0 19 19" fill="none" xmlns="http://www.w3.org/2000/svg">
<path d="M19 10.3906C19 8.84457 17.9034 7.5751 16.5189 7.4673C16.3547 6.91388 15.9111 6.47967 15.352 6.32904C14.9792 3.26444 12.4906 0.927734 9.5 0.927734C6.50936 0.927734 4.0208 3.26444 3.64804 6.32904C3.08898 6.47967 2.64527 6.91385 2.4811 7.4673C2.433 7.47105 2.38528 7.4762 2.33793 7.48273V3.85938C2.33793 3.55196 2.0887 3.30273 1.78129 3.30273C1.47387 3.30273 1.22465 3.55196 1.22465 3.85938V7.92827C0.488508 8.45092 0 9.35906 0 10.3906C0 11.9367 1.09658 13.2062 2.48106 13.314C2.64475 13.8656 3.08613 14.2987 3.64269 14.4507C3.87982 15.8309 5.08439 16.8848 6.53125 16.8848H6.65998C6.89288 17.5743 7.54541 18.0723 8.3125 18.0723H10.6875C11.6492 18.0723 12.4316 17.2899 12.4316 16.3281C12.4316 15.3664 11.6492 14.584 10.6875 14.584H8.3125C7.54541 14.584 6.89288 15.082 6.65998 15.7715H6.53125C5.6895 15.7715 4.97971 15.1964 4.77353 14.4186C5.42843 14.1927 5.90039 13.5705 5.90039 12.8398V7.94141C5.90039 7.20816 5.42517 6.58424 4.7667 6.36032C5.11441 3.90161 7.11001 2.04102 9.5 2.04102C11.89 2.04102 13.8856 3.90161 14.2333 6.36032C13.5748 6.58424 13.0996 7.20816 13.0996 7.94141V12.8398C13.0996 13.7606 13.8487 14.5098 14.7695 14.5098H14.918C15.6741 14.5098 16.3141 14.0045 16.5189 13.314C17.9034 13.2062 19 11.9367 19 10.3906ZM8.3125 15.6973H10.6875C11.0354 15.6973 11.3184 15.9803 11.3184 16.3281C11.3184 16.676 11.0354 16.959 10.6875 16.959H8.3125C7.96464 16.959 7.68164 16.676 7.68164 16.3281C7.68164 15.9803 7.96464 15.6973 8.3125 15.6973ZM1.11328 10.3906C1.11328 9.5079 1.68569 8.74787 2.41211 8.59872V12.1825C1.68569 12.0334 1.11328 11.2733 1.11328 10.3906ZM4.78711 12.8398C4.78711 13.1468 4.5374 13.3965 4.23047 13.3965H4.08203C3.7751 13.3965 3.52539 13.1468 3.52539 12.8398C3.52539 11.0536 3.52539 9.59262 3.52539 7.94141C3.52539 7.63447 3.7751 7.38477 4.08203 7.38477H4.23047C4.5374 7.38477 4.78711 7.63447 4.78711 7.94141V12.8398ZM15.4746 12.8398C15.4746 13.1468 15.2249 13.3965 14.918 13.3965H14.7695C14.4626 13.3965 14.2129 13.1468 14.2129 12.8398V7.94141C14.2129 7.63447 14.4626 7.38477 14.7695 7.38477H14.918C15.2249 7.38477 15.4746 7.63447 15.4746 7.94141V12.8398ZM16.5879 12.1825V8.59876C17.3143 8.7479 17.8867 9.50794 17.8867 10.3907C17.8867 11.2734 17.3143 12.0334 16.5879 12.1825Z" fill="#E9E9E9"/>
</svg>
