<svg width="38" height="39" viewBox="0 0 38 39" fill="none" xmlns="http://www.w3.org/2000/svg">
<path d="M15.4437 17.9699C15.5478 18.0268 15.6631 18.0553 15.7777 18.0553C15.9076 18.0553 16.0367 18.0185 16.1506 17.947L23.7895 13.0859C23.9895 12.9581 24.111 12.7372 24.111 12.4997C24.111 12.2622 23.9895 12.0414 23.7895 11.9136L16.1506 7.05252C15.9353 6.9171 15.6666 6.90808 15.443 7.0296C15.2214 7.15183 15.0833 7.38516 15.0833 7.63863V17.3609C15.0833 17.6143 15.2214 17.8477 15.4437 17.9699ZM16.4721 8.90322L22.1235 12.4997L16.4721 16.0963V8.90322Z" fill="white"/>
<path d="M0.5 0V38.1944H38V0H0.5ZM36.6111 1.38889V24.3056H1.88889V1.38889H36.6111ZM1.88889 36.8056V25.6944H36.6111V36.8056H1.88889Z" fill="white"/>
<path d="M9.65308 34.0278H8.90308V29.9862L7.84058 30.5556V29.8126L8.98641 29.1667H9.65308V34.0278Z" fill="white"/>
<path d="M12.3047 34.0278H11.5547V29.9862L10.4922 30.5556V29.8126L11.638 29.1667H12.3047V34.0278Z" fill="white"/>
<path d="M13.6716 35.0001H12.9077L15.8314 28.5278H16.5952L13.6716 35.0001Z" fill="white"/>
<path d="M18.5913 34.0278H17.8413V29.9862L16.7788 30.5556V29.8126L17.9247 29.1667H18.5913V34.0278Z" fill="white"/>
<path d="M21.243 34.0278H20.493V29.9862L19.4305 30.5556V29.8126L20.5763 29.1667H21.243V34.0278Z" fill="white"/>
<path d="M22.6099 35.0001H21.846L24.7696 28.5278H25.5335L22.6099 35.0001Z" fill="white"/>
<path d="M27.5296 34.0278H26.7796V29.9862L25.7171 30.5556V29.8126L26.8629 29.1667H27.5296V34.0278Z" fill="white"/>
<path d="M30.1812 34.0278H29.4312V29.9862L28.3687 30.5556V29.8126L29.5146 29.1667H30.1812V34.0278Z" fill="white"/>
</svg>
