<svg width="41" height="41" viewBox="0 0 41 41" fill="none" xmlns="http://www.w3.org/2000/svg">
<path d="M25.6462 18.6798L25.8015 19.1085H26.2574H32.7499C34.2673 19.1085 36.1612 19.617 37.6619 20.8077C39.1393 21.98 40.2666 23.8351 40.2666 26.6252V28.6668C40.2666 31.4569 39.1393 33.312 37.6619 34.4843C36.1612 35.675 34.2673 36.1835 32.7499 36.1835H11.9658H11.5098L11.3546 36.6122C10.5847 38.7386 8.57277 40.2668 6.20825 40.2668C4.75619 40.2668 3.3636 39.69 2.33684 38.6632L1.88319 39.1169L2.33684 38.6632C1.31008 37.6365 0.733252 36.2439 0.733252 34.7918C0.733252 33.3398 1.31008 31.9472 2.33684 30.9204C3.3636 29.8937 4.75619 29.3168 6.20825 29.3168C8.57277 29.3168 10.5847 30.8451 11.3546 32.9715L11.5098 33.4002H11.9658H32.7499C33.2741 33.4002 34.4336 33.3073 35.4835 32.6638C36.5831 31.9897 37.4833 30.757 37.4833 28.6668V26.6252C37.4833 24.4489 36.5029 23.2146 35.3671 22.5646C34.285 21.9455 33.1294 21.8918 32.7499 21.8918H26.2574H25.8015L25.6462 22.3205C24.8763 24.4469 22.8644 25.9752 20.4999 25.9752C18.1354 25.9752 16.1235 24.4469 15.3536 22.3205L15.1984 21.8918H14.7424H8.24992C6.73122 21.8918 4.8375 21.3877 3.33745 20.1999C1.86096 19.0307 0.733252 17.176 0.733252 14.3752V12.3335C0.733252 9.53262 1.86096 7.67798 3.33745 6.50881C4.8375 5.32097 6.73122 4.81683 8.24992 4.81683H29.0341H29.49L29.6453 4.38812C30.4152 2.26173 32.4271 0.733496 34.7916 0.733496C36.2436 0.733496 37.6362 1.31033 38.663 2.33709L39.1166 1.88344L38.663 2.33709C39.6898 3.36385 40.2666 4.75644 40.2666 6.2085C40.2666 7.66056 39.6898 9.05314 38.663 10.0799C37.6362 11.1067 36.2436 11.6835 34.7916 11.6835C32.4271 11.6835 30.4152 10.1553 29.6453 8.02888L29.49 7.60016H29.0341H8.24992C7.72576 7.60016 6.5662 7.69302 5.51636 8.33657C4.41671 9.01065 3.51659 10.2433 3.51659 12.3335V14.3752C3.51659 16.5515 4.49696 17.7858 5.63277 18.4357C6.7148 19.0548 7.87048 19.1085 8.24992 19.1085H14.7424H15.1984L15.3536 18.6798C16.1235 16.5534 18.1354 15.0252 20.4999 15.0252C22.8644 15.0252 24.8763 16.5534 25.6462 18.6798ZM32.8883 8.11179L33.3479 7.65217L32.8883 8.11179C33.3931 8.61658 34.0777 8.90016 34.7916 8.90016C35.5055 8.90016 36.1901 8.61658 36.6949 8.11179C37.1997 7.607 37.4833 6.92237 37.4833 6.2085C37.4833 5.49463 37.1997 4.80999 36.6949 4.3052C36.1901 3.80042 35.5055 3.51683 34.7916 3.51683C34.0777 3.51683 33.3931 3.80042 32.8883 4.3052L33.3479 4.76482L32.8883 4.3052C32.3835 4.80999 32.0999 5.49462 32.0999 6.2085C32.0999 6.92237 32.3835 7.60701 32.8883 8.11179ZM4.30496 32.8885L4.76458 33.3482L4.30496 32.8885C3.80017 33.3933 3.51659 34.078 3.51659 34.7918C3.51659 35.5057 3.80017 36.1903 4.30496 36.6951C4.80974 37.1999 5.49438 37.4835 6.20825 37.4835C6.92212 37.4835 7.60676 37.1999 8.11155 36.6951C8.61633 36.1903 8.89992 35.5057 8.89992 34.7918C8.89992 34.078 8.61633 33.3933 8.11155 32.8885L7.65193 33.3482L8.11155 32.8885C7.60676 32.3837 6.92213 32.1002 6.20825 32.1002C5.49438 32.1002 4.80974 32.3837 4.30496 32.8885Z" fill="white" stroke="#414042" stroke-width="1.3"/>
</svg>
