<svg width="37" height="37" viewBox="0 0 37 37" fill="none" xmlns="http://www.w3.org/2000/svg">
<path d="M30.2791 36.0453L28.467 30.6978C28.3677 30.4044 28.0923 30.2071 27.7826 30.2071H27.6775V19.7278C27.6775 14.6673 23.5605 10.5503 18.4999 10.5503C13.4394 10.5503 9.32243 14.6673 9.32243 19.7278V30.2071H9.21728C8.90755 30.2071 8.63222 30.4044 8.53286 30.6978L6.72087 36.0453C6.64607 36.2659 6.68228 36.509 6.81799 36.6983C6.95371 36.8876 7.17231 36.9999 7.4053 36.9999H29.5947C29.8277 36.9999 30.0463 36.8876 30.182 36.6983C30.3177 36.509 30.3539 36.2659 30.2791 36.0453ZM10.7677 19.7279C10.7677 15.4644 14.2364 11.9957 18.4999 11.9957C22.7635 11.9957 26.2322 15.4644 26.2322 19.7279V30.2071H10.7677V19.7279ZM8.41318 35.5546L9.73543 31.6524H27.2644L28.5867 35.5546H8.41318Z" fill="white"/>
<path d="M18.5 0C18.1009 0 17.7773 0.323605 17.7773 0.722656V5.05852C17.7773 5.45757 18.1009 5.78118 18.5 5.78118C18.8991 5.78118 19.2227 5.45757 19.2227 5.05852V0.722656C19.2227 0.323605 18.8991 0 18.5 0Z" fill="white"/>
<path d="M19.0108 7.36287C18.8765 7.22846 18.6901 7.15186 18.5 7.15186C18.3099 7.15186 18.1235 7.22846 17.9891 7.36287C17.8547 7.49801 17.7773 7.68366 17.7773 7.87451C17.7773 8.06457 17.8546 8.25029 17.9891 8.38543C18.1235 8.51977 18.3099 8.59645 18.5 8.59645C18.6901 8.59645 18.8765 8.51977 19.0108 8.38543C19.1453 8.25029 19.2227 8.06457 19.2227 7.87451C19.2227 7.68366 19.1453 7.49801 19.0108 7.36287Z" fill="white"/>
<path d="M6.90172 19.3428H3.5835C3.18445 19.3428 2.86084 19.6664 2.86084 20.0654C2.86084 20.4645 3.18445 20.7881 3.5835 20.7881H6.90179C7.30084 20.7881 7.62444 20.4645 7.62444 20.0654C7.62444 19.6664 7.30077 19.3428 6.90172 19.3428Z" fill="white"/>
<path d="M1.23399 19.5545C1.09965 19.42 0.913203 19.3428 0.723145 19.3428C0.533086 19.3428 0.346641 19.42 0.212227 19.5545C0.0778125 19.689 0.000488281 19.8754 0.000488281 20.0654C0.000488281 20.2555 0.0777402 20.4419 0.212227 20.5763C0.346641 20.7107 0.533086 20.7881 0.723145 20.7881C0.913203 20.7881 1.09965 20.7108 1.23399 20.5763C1.3684 20.4419 1.4458 20.2555 1.4458 20.0654C1.4458 19.8754 1.3684 19.6889 1.23399 19.5545Z" fill="white"/>
<path d="M13.6347 6.43088L12.6552 4.06628C12.5024 3.69758 12.0797 3.52277 11.7109 3.67517C11.3422 3.82794 11.1671 4.2507 11.3198 4.6194L12.2993 6.984C12.4147 7.2623 12.6837 7.43031 12.9673 7.43031C13.0594 7.43031 13.1531 7.41254 13.2435 7.3751C13.6123 7.22226 13.7873 6.79951 13.6347 6.43088Z" fill="white"/>
<path d="M5.41869 13.8646L3.05409 12.8851C2.68524 12.7328 2.26264 12.9076 2.10987 13.2762C1.95717 13.645 2.13227 14.0677 2.50097 14.2204L4.86557 15.1999C4.95605 15.2373 5.0497 15.2551 5.14184 15.2551C5.42541 15.2551 5.69446 15.0871 5.80979 14.8088C5.96249 14.44 5.78739 14.0174 5.41869 13.8646Z" fill="white"/>
<path d="M33.7177 19.3428H30.3994C30.0004 19.3428 29.6768 19.6664 29.6768 20.0654C29.6768 20.4645 30.0004 20.7881 30.3994 20.7881H33.7177C34.1168 20.7881 34.4404 20.4645 34.4404 20.0654C34.4404 19.6664 34.1168 19.3428 33.7177 19.3428Z" fill="white"/>
<path d="M36.7877 19.5545C36.6534 19.4201 36.4669 19.3428 36.2769 19.3428C36.0868 19.3428 35.9004 19.42 35.7659 19.5545C35.6315 19.689 35.5542 19.8754 35.5542 20.0654C35.5542 20.2555 35.6315 20.4419 35.7659 20.5763C35.9004 20.7107 36.0868 20.7881 36.2769 20.7881C36.4669 20.7881 36.6534 20.7108 36.7877 20.5763C36.9221 20.4419 36.9995 20.2555 36.9995 20.0654C36.9995 19.8754 36.9222 19.6889 36.7877 19.5545Z" fill="white"/>
<path d="M32.7904 5.77458C32.5081 5.49246 32.0506 5.49246 31.7683 5.77458L28.2126 9.33034C27.9304 9.61254 27.9304 10.0701 28.2126 10.3524C28.3538 10.4935 28.5388 10.5641 28.7237 10.5641C28.9087 10.5641 29.0935 10.4935 29.2347 10.3524L32.7904 6.79664C33.0725 6.51444 33.0725 6.05685 32.7904 5.77458Z" fill="white"/>
<path d="M8.78719 9.33068L5.2315 5.77507C4.94923 5.49295 4.49179 5.49295 4.20945 5.77507C3.92725 6.05727 3.92725 6.51485 4.20945 6.79712L7.76521 10.3528C7.90634 10.4939 8.09127 10.5645 8.2762 10.5645C8.46112 10.5645 8.64605 10.4939 8.78719 10.3528C9.06938 10.0705 9.06938 9.61295 8.78719 9.33068Z" fill="white"/>
<path d="M25.289 3.67513C24.9202 3.5228 24.4975 3.69761 24.3447 4.06624L23.3652 6.43084C23.2125 6.79954 23.3876 7.22222 23.7563 7.37506C23.8468 7.4125 23.9405 7.43027 24.0326 7.43027C24.3162 7.43027 24.5852 7.26225 24.7006 6.98396L25.6801 4.61936C25.8327 4.25051 25.6576 3.8279 25.289 3.67513Z" fill="white"/>
<path d="M34.8901 13.2763C34.7374 12.9075 34.3147 12.7327 33.9459 12.8852L31.5813 13.8647C31.2125 14.0174 31.0375 14.4402 31.1902 14.8089C31.3055 15.0872 31.5746 15.2552 31.8581 15.2552C31.9503 15.2552 32.0439 15.2374 32.1344 15.2L34.499 14.2205C34.8678 14.0677 35.0428 13.645 34.8901 13.2763Z" fill="white"/>
</svg>
