<svg width="38" height="38" viewBox="0 0 38 38" fill="none" xmlns="http://www.w3.org/2000/svg">
<path d="M3.33984 0.5H34.6602C36.2256 0.5 37.5 1.7744 37.5 3.33984V34.6602C37.5 36.2256 36.2256 37.5 34.6602 37.5H3.33984C1.7744 37.5 0.5 36.2256 0.5 34.6602V3.33984C0.5 1.7744 1.7744 0.5 3.33984 0.5ZM34.6602 36.2734C35.5502 36.2734 36.2734 35.5502 36.2734 34.6602V3.33984C36.2734 2.44984 35.5502 1.72656 34.6602 1.72656H3.33984C2.44984 1.72656 1.72656 2.44984 1.72656 3.33984V34.6602C1.72656 35.5502 2.44984 36.2734 3.33984 36.2734H34.6602Z" fill="white" stroke="#414042"/>
<path d="M31.4961 6.75391V6.50391H31.2461H27.9062C27.4295 6.50391 27.043 6.11738 27.043 5.64062C27.043 5.16387 27.4295 4.77734 27.9062 4.77734H32.3594C32.8361 4.77734 33.2227 5.16387 33.2227 5.64062V10.0938C33.2227 10.5705 32.8361 10.957 32.3594 10.957C31.8826 10.957 31.4961 10.5705 31.4961 10.0938V6.75391Z" fill="white" stroke="#414042" stroke-width="0.5"/>
<path d="M31.2461 31.4961H31.4961V31.2461V27.9062C31.4961 27.4295 31.8826 27.043 32.3594 27.043C32.8361 27.043 33.2227 27.4295 33.2227 27.9062V32.3594C33.2227 32.8361 32.8361 33.2227 32.3594 33.2227H27.9062C27.4295 33.2227 27.043 32.8361 27.043 32.3594C27.043 31.8826 27.4295 31.4961 27.9062 31.4961H31.2461Z" fill="white" stroke="#414042" stroke-width="0.5"/>
<path d="M6.75391 6.50391H6.50391V6.75391V10.0938C6.50391 10.5705 6.11738 10.957 5.64062 10.957C5.16387 10.957 4.77734 10.5705 4.77734 10.0938V5.64062C4.77734 5.16387 5.16387 4.77734 5.64062 4.77734H10.0938C10.5705 4.77734 10.957 5.16387 10.957 5.64062C10.957 6.11738 10.5705 6.50391 10.0938 6.50391H6.75391Z" fill="white" stroke="#414042" stroke-width="0.5"/>
<path d="M6.50391 31.2461V31.4961H6.75391H10.0938C10.5705 31.4961 10.957 31.8826 10.957 32.3594C10.957 32.8361 10.5705 33.2227 10.0938 33.2227H5.64062C5.16387 33.2227 4.77734 32.8361 4.77734 32.3594V27.9062C4.77734 27.4295 5.16387 27.043 5.64062 27.043C6.11738 27.043 6.50391 27.4295 6.50391 27.9062V31.2461Z" fill="white" stroke="#414042" stroke-width="0.5"/>
<path d="M17.3479 22.3398V22.5898H17.5979H20.2373C20.7141 22.5898 21.1006 22.9764 21.1006 23.4531C21.1006 23.9299 20.7141 24.3164 20.2373 24.3164H16.4846C16.0079 24.3164 15.6213 23.9299 15.6213 23.4531V14.5469C15.6213 14.0701 16.0079 13.6836 16.4846 13.6836H20.2373C20.7141 13.6836 21.1006 14.0701 21.1006 14.5469C21.1006 15.0236 20.7141 15.4102 20.2373 15.4102H17.5979H17.3479V15.6602V17.8867V18.1367H17.5979H19.9607C20.4374 18.1367 20.8239 18.5232 20.8239 19C20.8239 19.4768 20.4374 19.8633 19.9607 19.8633H17.5979H17.3479V20.1133V22.3398Z" fill="white" stroke="#414042" stroke-width="0.5"/>
<path d="M8.31682 20.7668L7.87915 20.2695V20.932V23.4531C7.87915 23.9299 7.49263 24.3164 7.01587 24.3164C6.53911 24.3164 6.15259 23.9299 6.15259 23.4531V14.5469C6.15259 14.0716 6.53678 13.6859 7.01155 13.6836C7.01334 13.6836 7.01525 13.6837 7.01728 13.6837C7.01949 13.6837 7.02155 13.6836 7.02346 13.6836H9.38545C11.2187 13.6836 12.6944 15.1182 12.6944 16.8615C12.6944 18.2909 11.7035 19.5111 10.3342 19.9056L9.95502 20.0148L10.2157 20.311L12.4791 22.8828C12.7941 23.2407 12.7594 23.7862 12.4015 24.1012L12.4014 24.1012C12.2374 24.2457 12.0344 24.3164 11.8316 24.3164C11.5915 24.3164 11.3537 24.2173 11.1831 24.0235L10.9954 24.1886L11.1831 24.0235L8.31682 20.7668ZM6.99648 13.6828L7.00067 13.6831L6.99648 13.6828ZM7.89229 18.0683L7.89353 18.3183L8.1435 18.3171C8.60418 18.3148 9.09662 18.3128 9.38553 18.3128C10.2208 18.3128 10.9678 17.6746 10.9678 16.8615C10.9678 16.0485 10.2208 15.4102 9.38545 15.4102H8.13546H7.88475L7.88546 15.6609C7.8868 16.1311 7.88798 16.6236 7.88798 16.8615C7.88798 17.1405 7.89006 17.6188 7.89229 18.0683Z" fill="white" stroke="#414042" stroke-width="0.5"/>
<path d="M32.2393 22.7509C32.5457 22.3855 32.498 21.841 32.1327 21.5346C31.7675 21.2282 31.223 21.2759 30.9166 21.6412L32.2393 22.7509ZM32.2393 22.7509C32.1004 22.9164 31.9495 23.0721 31.7908 23.2134M32.2393 22.7509L31.7908 23.2134M31.7908 23.2134C30.9832 23.9327 29.9425 24.3164 28.7725 24.3164C25.8412 24.3164 23.4561 21.9312 23.4561 19C23.4561 16.0688 25.8412 13.6836 28.7725 13.6836C29.8381 13.6836 30.8658 13.9978 31.7455 14.5921C32.1406 14.859 32.2445 15.3957 31.9776 15.7907C31.7106 16.1858 31.174 16.2896 30.7789 16.0228L31.7908 23.2134Z" fill="white" stroke="#414042" stroke-width="0.5"/>
<rect x="0.5" y="0.5" width="37" height="37" stroke="white"/>
</svg>
