<svg width="38" height="38" viewBox="0 0 38 38" fill="none" xmlns="http://www.w3.org/2000/svg">
<path d="M10.5001 0.75H30.7899L37.3334 7.2935V27.5833C37.3334 29.1083 36.7276 30.5709 35.6493 31.6492C34.5709 32.7275 33.1084 33.3333 31.5834 33.3333H10.5001C8.97509 33.3333 7.51255 32.7275 6.43422 31.6492C5.35588 30.5709 4.75008 29.1083 4.75008 27.5833V6.5C4.75008 4.97501 5.35588 3.51247 6.43422 2.43414C7.51255 1.3558 8.97509 0.75 10.5001 0.75ZM10.5001 2.66667C9.48342 2.66667 8.50839 3.07053 7.7895 3.78942C7.07062 4.50831 6.66675 5.48334 6.66675 6.5V27.5833C6.66675 28.6 7.07062 29.575 7.7895 30.2939C8.50839 31.0128 9.48342 31.4167 10.5001 31.4167H31.5834C32.6001 31.4167 33.5751 31.0128 34.294 30.2939C35.0129 29.575 35.4167 28.6 35.4167 27.5833V8.25183L29.8316 2.66667H27.7501V12.25H10.5001V2.66667ZM12.4167 2.66667V10.3333H25.8334V2.66667H12.4167ZM22.0001 16.0833C22.7552 16.0833 23.5029 16.2321 24.2005 16.521C24.8981 16.81 25.532 17.2335 26.0659 17.7675C26.5999 18.3014 27.0234 18.9353 27.3124 19.6329C27.6014 20.3305 27.7501 21.0782 27.7501 21.8333C27.7501 22.5884 27.6014 23.3361 27.3124 24.0338C27.0234 24.7314 26.5999 25.3653 26.0659 25.8992C25.532 26.4331 24.8981 26.8567 24.2005 27.1456C23.5029 27.4346 22.7552 27.5833 22.0001 27.5833C20.4751 27.5833 19.0125 26.9775 17.9342 25.8992C16.8559 24.8209 16.2501 23.3583 16.2501 21.8333C16.2501 20.3083 16.8559 18.8458 17.9342 17.7675C19.0125 16.6891 20.4751 16.0833 22.0001 16.0833ZM22.0001 18C20.9834 18 20.0084 18.4039 19.2895 19.1228C18.5706 19.8416 18.1667 20.8167 18.1667 21.8333C18.1667 22.85 18.5706 23.825 19.2895 24.5439C20.0084 25.2628 20.9834 25.6667 22.0001 25.6667C23.0167 25.6667 23.9918 25.2628 24.7107 24.5439C25.4295 23.825 25.8334 22.85 25.8334 21.8333C25.8334 20.8167 25.4295 19.8416 24.7107 19.1228C23.9918 18.4039 23.0167 18 22.0001 18ZM10.5001 37.1667C9.24158 37.1667 7.9954 36.9188 6.8327 36.4372C5.66999 35.9556 4.61354 35.2497 3.72364 34.3598C1.92642 32.5626 0.916748 30.125 0.916748 27.5833V8.41667H2.83341V27.5833C2.83341 29.6167 3.64115 31.5667 5.07893 33.0045C6.51671 34.4423 8.46675 35.25 10.5001 35.25H29.6667V37.1667H10.5001Z" fill="white" stroke="#414042" stroke-width="0.6"/>
</svg>
