<svg width="44" height="44" viewBox="0 0 44 44" fill="none" xmlns="http://www.w3.org/2000/svg">
<path d="M27.7997 30.55H27.4997H19.819H19.6947L19.6068 30.4621L13.5376 24.3929L13.4497 24.305V24.1807V16.5V16.2H13.7497H16.4994C17.1491 16.1994 17.7719 15.941 18.2313 15.4816C18.6907 15.0222 18.9491 14.3994 18.9497 13.7497V5.5003C18.9491 4.85064 18.6907 4.22777 18.2313 3.76839C17.772 3.30905 17.1492 3.05069 16.4996 3.05H8.24986C7.60025 3.05069 6.97744 3.30905 6.5181 3.76839C6.05875 4.22774 5.80039 4.85056 5.79971 5.50018C5.79971 5.50022 5.79971 5.50026 5.79971 5.5003V13.7497C5.79971 13.7497 5.79971 13.7498 5.79971 13.7498C5.80039 14.3994 6.05875 15.0223 6.5181 15.4816C6.97748 15.941 7.60035 16.1994 8.25001 16.2H10.9997H11.2997V16.5V24.1807V24.305L11.2118 24.3929L4.73975 30.865C4.73973 30.865 4.73972 30.865 4.73971 30.865C4.5382 31.0666 4.425 31.34 4.425 31.625C4.425 31.91 4.5382 32.1834 4.73971 32.385L27.7997 30.55ZM27.7997 30.55V30.25V27.5003C27.8004 26.8506 28.0587 26.2278 28.5181 25.7684C28.9775 25.309 29.6003 25.0506 30.25 25.05H38.4994C39.1491 25.0506 39.7719 25.309 40.2313 25.7684C40.6907 26.2278 40.9491 26.8506 40.9497 27.5003V35.7497C40.9491 36.3994 40.6907 37.0222 40.2313 37.4816C39.7719 37.941 39.1491 38.1994 38.4994 38.2H30.25C29.6003 38.1994 28.9775 37.941 28.5181 37.4816C28.0587 37.0222 27.8004 36.3994 27.7997 35.7497V33V32.7H27.4997H19.819H19.6947L19.6068 32.7879L13.1347 39.26C13.1347 39.26 13.1347 39.26 13.1347 39.26C12.9331 39.4615 12.6597 39.5747 12.3747 39.5747C12.0897 39.5747 11.8163 39.4615 11.6147 39.26C11.6147 39.26 11.6147 39.26 11.6147 39.26L4.73975 32.385L27.7997 30.55ZM8.24971 5.2H7.94971V5.5V13.75V14.05H8.24971H16.4997H16.7997V13.75V5.5V5.2H16.4997H8.24971ZM12.1626 36.7679L12.3747 36.98L12.5868 36.7679L17.5176 31.8371L17.7297 31.625L17.5176 31.4129L12.5868 26.4821L12.3747 26.27L12.1626 26.4821L7.23182 31.4129L7.01969 31.625L7.23182 31.8371L12.1626 36.7679ZM29.9497 35.75V36.05H30.2497H38.4997H38.7997V35.75V27.5V27.2H38.4997H30.2497H29.9497V27.5V35.75Z" fill="white" stroke="#414042" stroke-width="0.6"/>
</svg>
