<svg width="20" height="23" viewBox="0 0 20 23" fill="none" xmlns="http://www.w3.org/2000/svg">
<path d="M3.125 4.3125C2.09688 4.3125 1.25 5.28641 1.25 6.46875V16.5312C1.25 17.7136 2.09688 18.6875 3.125 18.6875H16.875C17.9031 18.6875 18.75 17.7136 18.75 16.5312V6.46875C18.75 5.28641 17.9031 4.3125 16.875 4.3125H3.125ZM3.125 5.75H16.875C17.2281 5.75 17.5 6.06266 17.5 6.46875V7.90625H3.125V9.34375H17.5V16.5312C17.5 16.9373 17.2281 17.25 16.875 17.25H3.125C2.77188 17.25 2.5 16.9373 2.5 16.5312V6.46875C2.5 6.06266 2.77188 5.75 3.125 5.75Z" fill="#E9E9E9"/>
</svg>
