<svg width="146" height="27" viewBox="0 0 146 27" fill="none" xmlns="http://www.w3.org/2000/svg">
<path d="M83.8485 19.8775C79.4773 19.8775 75.9363 16.2427 75.9363 11.7577C75.9363 7.27262 79.4804 3.63779 83.8485 3.63779C88.2165 3.63779 91.7606 7.27262 91.7606 11.7577C91.7637 16.2427 88.2196 19.8775 83.8485 19.8775ZM84.0782 0C77.3484 0 72.3003 5.21081 72.3003 11.6362C72.3003 22.0934 84.0139 26.2051 84.0139 26.2051C84.0139 26.2051 95.7918 21.8297 95.7918 11.6362C95.7918 5.1486 90.808 0 84.0782 0Z" fill="#F5882E"/>
<path d="M86.4582 10.8391C85.2053 10.8391 84.1884 9.79634 84.1884 8.51067C84.1884 8.31516 84.2527 8.14334 84.2956 7.96264C84.2956 7.93597 84.2864 7.90931 84.2864 7.88265C84.1424 7.86488 83.9954 7.85303 83.8453 7.85303C81.8083 7.85303 80.1572 9.5475 80.1572 11.6389C80.1572 13.7304 81.8083 15.4248 83.8453 15.4248C85.8823 15.4248 87.5333 13.7304 87.5333 11.6389C87.5333 11.2835 87.4813 10.9457 87.3924 10.6199C87.1076 10.7532 86.7951 10.8391 86.4582 10.8391Z" fill="#F5882E"/>
<path d="M7.2781 10.2856C5.26253 9.81752 4.76323 9.51833 4.76323 8.83698C4.76323 8.26228 5.24109 7.8357 6.21824 7.8357C7.50477 7.8357 8.95978 8.34819 10.2892 9.308L12.3048 6.3871C10.7272 5.08662 8.79437 4.40527 6.32239 4.40527C2.83343 4.40527 0.692277 6.40784 0.692277 9.18061C0.692277 12.2941 3.08155 13.1887 6.17536 13.9115C8.1511 14.3796 8.6259 14.7232 8.6259 15.3394C8.6259 16.0207 8.04389 16.4058 6.96259 16.4058C5.28091 16.4058 3.67887 15.7867 2.24531 14.6166L0 17.3656C1.78583 19.0068 4.23637 19.8392 6.81556 19.8392C10.3474 19.8392 12.6938 18.0263 12.6938 14.978C12.6999 12.14 10.6231 11.0321 7.2781 10.2856Z" fill="white"/>
<path d="M20.5939 12.0775H18.6825V8.1316H20.5725C22.0275 8.1316 22.9005 8.81294 22.9005 10.0927C22.9005 11.3073 22.0275 12.0775 20.5939 12.0775ZM20.8849 4.65674H14.6514V19.5782H18.6825V15.3153H20.6766C24.2912 15.3153 26.9286 13.4609 26.9286 9.94457C26.9316 6.59709 24.5638 4.65674 20.8849 4.65674Z" fill="white"/>
<path d="M33.018 13.6949H39.999V10.4334H33.018V8.17603H40.725V4.65674H29.0298V19.5782H40.8291V16.0619H33.018V13.6949Z" fill="white"/>
<path d="M50.0124 16.1033C47.9754 16.1033 46.5418 14.3555 46.5418 12.1159C46.5418 9.90005 47.9754 8.12855 50.0124 8.12855C51.4031 8.12855 52.3802 8.78916 53.2104 9.85561L56.1602 7.50942C54.8706 5.67571 53.0235 4.35449 50.0522 4.35449C45.6474 4.35449 42.3882 7.76418 42.3882 12.1129C42.3882 16.6098 45.7332 19.8714 49.8868 19.8714C53.1062 19.8714 54.9564 18.4435 56.3287 16.5032L53.2961 14.2873C52.4231 15.3804 51.5287 16.1033 50.0124 16.1033Z" fill="white"/>
<path d="M57.5264 8.28268H61.8883V19.5782H65.9195V8.28268H70.2814V4.65674H57.5264V8.28268Z" fill="white"/>
<path d="M105.29 16.1033C103.253 16.1033 101.82 14.3555 101.82 12.1159C101.82 9.90005 103.253 8.12855 105.29 8.12855C106.684 8.12855 107.658 8.78916 108.488 9.85561L111.438 7.50942C110.148 5.67571 108.301 4.35449 105.33 4.35449C100.925 4.35449 97.666 7.76418 97.666 12.1129C97.666 16.6098 101.011 19.8714 105.165 19.8714C108.384 19.8714 110.234 18.4435 111.607 16.5032L108.574 14.2873C107.701 15.3804 106.807 16.1033 105.29 16.1033Z" fill="white"/>
<path d="M120.631 16.1476C118.428 16.1476 116.912 14.2724 116.912 12.1188C116.912 9.92368 118.386 8.08998 120.591 8.08998C122.815 8.08998 124.331 9.96516 124.331 12.1188C124.331 14.3139 122.855 16.1476 120.631 16.1476ZM120.631 4.36035C116.143 4.36035 112.777 7.83521 112.777 12.1188C112.777 16.4468 116.1 19.8772 120.588 19.8772C125.075 19.8772 128.442 16.4024 128.442 12.1188C128.445 7.79078 125.118 4.36035 120.631 4.36035Z" fill="white"/>
<path d="M141.739 4.65674L138.272 10.4334L134.801 4.65674H130.543V19.5782H134.489V11.0525L138.189 16.8499H138.272L141.991 11.011V19.5782H146V4.65674H141.739Z" fill="white"/>
</svg>
