<svg width="113" height="127" viewBox="0 0 113 127" fill="none" xmlns="http://www.w3.org/2000/svg">
<path d="M55.5496 95.733C34.5233 95.733 17.49 78.2271 17.49 56.6266C17.49 35.026 34.538 17.5201 55.5496 17.5201C76.5612 17.5201 93.6092 35.026 93.6092 56.6266C93.6239 78.2271 76.576 95.733 55.5496 95.733ZM56.6547 0C24.2827 0 0 25.096 0 56.0416C0 106.405 56.3453 126.208 56.3453 126.208C56.3453 126.208 113 105.135 113 56.0416C113 24.7964 89.0267 0 56.6547 0Z" fill="#F5882E"/>
<path d="M68.2426 52.6249C62.2603 52.6249 57.4043 47.5723 57.4043 41.3428C57.4043 40.3954 57.7115 39.5629 57.9163 38.6873C57.9163 38.5582 57.8724 38.429 57.8724 38.2998C57.1849 38.2137 56.4829 38.1562 55.7662 38.1562C46.0395 38.1562 38.1558 46.3666 38.1558 56.5004C38.1558 66.6342 46.0395 74.8446 55.7662 74.8446C65.4928 74.8446 73.3765 66.6342 73.3765 56.5004C73.3765 54.778 73.1279 53.1416 72.7037 51.5627C71.3434 52.2086 69.8515 52.6249 68.2426 52.6249Z" fill="#F5882E"/>
</svg>
