<svg width="41" height="41" viewBox="0 0 41 41" fill="none" xmlns="http://www.w3.org/2000/svg">
<path d="M32.1889 6.06583L28.355 2.23193V6.06583H32.1889Z" fill="white"/>
<path d="M19.6246 7.97176C19.5575 7.99381 18.7152 9.15862 19.6905 10.1442C20.3399 8.71569 19.6541 7.96261 19.6246 7.97176Z" fill="white"/>
<path d="M18.2107 18.7982C19.6397 18.2506 21.1944 17.772 22.6536 17.4337C21.7305 16.3745 20.808 15.052 20.0394 13.6885C19.5505 15.3593 18.9047 17.1639 18.2107 18.7982Z" fill="white"/>
<path d="M13.7218 22.9896C13.715 23.0516 13.6962 23.2155 14.0162 23.4572C14.118 23.4255 14.7135 23.1571 15.822 21.1367C14.3601 21.947 13.7638 22.6133 13.7218 22.9896Z" fill="white"/>
<path d="M25.1487 18.1343C25.7059 18.5579 25.8426 18.7721 26.2072 18.7721C26.367 18.7721 26.823 18.7651 27.0342 18.4742C27.1365 18.333 27.1764 18.2422 27.1914 18.1948C27.1076 18.1502 26.9957 18.0615 26.3879 18.0615C26.0423 18.0615 25.6085 18.077 25.1487 18.1343Z" fill="white"/>
<path d="M27.6683 7.43859C27.2894 7.43859 26.9821 7.13126 26.9821 6.75237V1.26123H7.0769V27.344H33.1597V7.43859H27.6683ZM27.971 19.1359C27.5902 19.6624 27.0659 19.9404 26.4528 19.9404C25.6209 19.9404 24.6525 19.4217 23.5721 18.3967C21.6317 18.7976 19.3662 19.5122 17.5346 20.3029C16.9629 21.5015 16.4151 22.4666 15.9046 23.1746C15.205 24.1454 14.6009 24.5982 14.0024 24.5982C13.7643 24.5982 13.5358 24.5222 13.3415 24.3779C12.629 23.8494 12.5338 23.2626 12.5791 22.8624C12.7039 21.7635 14.0808 20.6116 16.6724 19.4386C17.7016 17.2122 18.6802 14.4685 19.2636 12.1769C18.5807 10.7092 17.9177 8.80609 18.401 7.68914C18.5704 7.29783 18.7825 6.9973 19.1766 6.8678C19.3328 6.81618 19.7263 6.75143 19.872 6.75143C20.2166 6.75143 20.5192 7.19014 20.7339 7.45994C20.9357 7.71472 21.3936 8.25266 20.4786 12.0554C21.4004 13.9355 22.7064 15.851 23.9578 17.1627C24.8554 17.0029 25.627 16.9215 26.2553 16.9215C27.3258 16.9215 27.9752 17.1683 28.2393 17.6753C28.4578 18.0969 28.3672 18.5881 27.971 19.1359Z" fill="white"/>
<path d="M18.7456 31.4624V36.9538C20.2595 36.9538 21.4909 35.7223 21.4909 34.208C21.4909 32.6938 20.259 31.4624 18.7456 31.4624Z" fill="white"/>
<path d="M7.0769 28.7163V39.6983H33.1597V28.7163H7.0769ZM12.568 35.5801H11.1951V37.639C11.1951 38.0181 10.8878 38.3257 10.5089 38.3257C10.13 38.3257 9.82247 38.0181 9.82247 37.639V30.7754C9.82247 30.3965 10.13 30.089 10.5089 30.089H12.568C14.0822 30.089 15.3136 31.3204 15.3136 32.8343C15.3136 34.3489 14.0817 35.5801 12.568 35.5801ZM18.7456 38.3257H18.0589C17.6801 38.3257 17.3727 38.0181 17.3727 37.639V30.7754C17.3727 30.3965 17.6801 30.089 18.0589 30.089H18.7456C21.0168 30.089 22.8636 31.9358 22.8636 34.2072C22.8636 36.4784 21.0159 38.3257 18.7456 38.3257ZM29.7277 33.521C30.1066 33.521 30.4139 33.8283 30.4139 34.2072C30.4139 34.5861 30.1066 34.8937 29.7277 34.8937H26.2957V37.639C26.2957 38.0181 25.9881 38.3257 25.6092 38.3257C25.2303 38.3257 24.923 38.0181 24.923 37.639V30.7754C24.923 30.3965 25.2303 30.089 25.6092 30.089H29.7277C30.1066 30.089 30.4139 30.3965 30.4139 30.7754C30.4139 31.1543 30.1066 31.4616 29.7277 31.4616H26.2957V33.521H29.7277Z" fill="white"/>
<path d="M12.568 31.4624H11.1951V34.208H12.568C13.325 34.208 13.9409 33.5924 13.9409 32.8351C13.9409 32.0782 13.325 31.4624 12.568 31.4624Z" fill="white"/>
</svg>
