<svg width="63" height="63" viewBox="0 0 63 63" fill="none" xmlns="http://www.w3.org/2000/svg">
<g clip-path="url(#clip0)">
<path d="M54.2177 24.5571C53.619 21.7775 52.5052 19.135 50.9334 16.766C50.6982 16.4111 50.723 15.9434 50.9948 15.6155L54.653 11.1978L49.6075 6.1518L45.1899 9.81106C44.8635 10.0813 44.3986 10.1077 44.0442 9.87525C41.6649 8.31424 39.0214 7.19985 36.2429 6.58602C35.8341 6.4954 35.5304 6.1518 35.4899 5.73485L34.9376 0H28.097L27.5446 5.73485C27.5047 6.1518 27.2005 6.4954 26.7916 6.58602C24.0132 7.19985 21.3702 8.31424 18.9909 9.87525C18.6365 10.1077 18.1716 10.0813 17.8447 9.81106L13.4276 6.1518L8.381 11.1973L12.0403 15.615C12.3121 15.9429 12.3375 16.41 12.1023 16.7649C10.5305 19.1345 9.41663 21.7775 8.81898 24.5571C8.7316 24.9681 8.38801 25.2744 7.96998 25.3149L2.24268 25.8672V33.0288L7.96998 33.5811C8.38531 33.6216 8.72675 33.9263 8.81413 34.3341C9.42796 37.1126 10.5424 39.7561 12.1028 42.1354C12.3353 42.4903 12.3094 42.9547 12.0386 43.2816L8.41552 47.6567L11.6729 50.5376L17.4563 42.2384C10.647 34.8261 10.8352 23.2549 18.0184 16.0713C25.3946 8.69559 37.3962 8.69559 44.7724 16.0713C51.9528 23.2517 52.1438 34.8158 45.3436 42.2287L51.346 50.5484L54.6169 47.6567L50.9938 43.2822C50.723 42.9558 50.6966 42.4914 50.9285 42.1365C52.4884 39.7567 53.6023 37.1131 54.215 34.3347C54.3046 33.9263 54.6466 33.6216 55.063 33.5811L60.7903 33.0288V25.8672L55.063 25.3149C54.6455 25.2744 54.3035 24.9675 54.2177 24.5571Z" fill="#F6892F"/>
<path d="M33.9856 50.5958C33.5773 50.4728 33.2984 50.0968 33.2984 49.6707V31.4488C33.2984 31.0756 33.5131 30.7358 33.8508 30.5761C36.2408 29.4401 37.9103 26.8634 37.9103 24.3099C37.9103 21.4776 36.5888 19.3745 34.2343 18.3701L34.538 22.2764C34.5623 22.5887 34.4333 22.8935 34.1928 23.0936C34.1847 23.1006 34.175 23.1076 34.1669 23.1146C32.2914 24.5737 29.6689 24.5888 27.7767 23.1519L27.7357 23.1206C27.4724 22.9205 27.3295 22.6001 27.357 22.271L27.672 18.4737C25.6385 19.6021 24.4243 21.7516 24.4243 24.3731C24.4243 27.501 26.1914 29.979 29.0405 30.8393C29.4472 30.9634 29.7239 31.3393 29.7212 31.7644V49.9231C29.7239 50.2975 29.5092 50.6389 29.1715 50.7991C27.2125 51.7161 25.1245 54.0549 25.1541 57.0216C25.1541 59.8362 26.4519 61.95 28.7643 63.0002L28.4649 59.1279C28.4401 58.8064 28.5766 58.4941 28.8296 58.294C30.7056 56.8317 33.3308 56.8145 35.2257 58.253L35.2667 58.2848C35.5294 58.4844 35.6718 58.8048 35.6443 59.1333L35.3282 62.9307C37.3585 61.806 38.5818 59.6646 38.6061 57.0539C38.605 53.9341 36.8353 51.4561 33.9856 50.5958Z" fill="#F6892F"/>
</g>
<defs>
<clipPath id="clip0">
<rect width="63" height="63" fill="white"/>
</clipPath>
</defs>
</svg>
