<svg width="59" height="59" viewBox="0 0 59 59" fill="none" xmlns="http://www.w3.org/2000/svg">
<g clip-path="url(#clip0)">
<path d="M12.723 28.1348C9.4831 28.1348 6.85547 30.7624 6.85547 34.0023C6.85547 37.2422 9.4831 39.8698 12.723 39.8698C15.9629 39.8698 18.5905 37.2422 18.5905 34.0023C18.5905 30.7624 15.9629 28.1348 12.723 28.1348Z" fill="#F6892F"/>
<path d="M40.7341 10.8896C38.132 10.0988 34.5477 9.65234 30.9124 9.65234C27.2388 9.65234 23.7821 10.0988 21.2055 10.8896C18.7692 11.6422 17.9146 12.4968 17.9146 12.7647C17.9273 12.7774 17.9401 12.7902 17.9401 12.803C18.0038 13.0836 18.7819 13.9637 21.5244 14.7546C24.0627 15.4944 27.4046 15.9026 30.9252 15.9026C34.5605 15.9026 38.1448 15.4434 40.7341 14.6653C43.5148 13.8234 44.1144 12.956 44.1144 12.7774C44.1144 12.5989 43.5148 11.7315 40.7341 10.8896Z" fill="#F6892F"/>
<path d="M41.4869 17.0757C38.6297 17.9431 34.8923 18.4151 30.9509 18.4151C27.188 18.4151 23.6037 17.9814 20.8358 17.1778C19.8791 16.9227 18.9607 16.5655 18.0806 16.1191L18.1699 19.7161C19.5985 20.2518 20.9506 21.0172 22.1496 21.9738C22.1751 21.9866 22.2133 21.9866 22.2516 21.9993C24.7007 22.6244 27.7875 22.956 30.9381 22.956C34.5734 22.956 38.1577 22.5096 40.7471 21.7187C43.515 20.8769 44.1145 19.9967 44.1145 19.8309C44.1145 19.5758 44.1783 19.3335 44.3186 19.1166V15.9277C43.413 16.4252 42.4563 16.8206 41.4869 17.0757Z" fill="#F6892F"/>
<path d="M30.3896 40.0996C30.3641 39.9465 30.3641 39.8062 30.3896 39.6531C29.2033 39.6404 28.0553 39.5766 26.9583 39.4873C26.3716 41.0052 25.5425 42.4211 24.5093 43.6839C26.4864 44.0155 28.4635 44.1813 30.4406 44.2068L30.3896 40.0996Z" fill="#F6892F"/>
<path d="M25.1725 31.4385C24.5985 28.6833 23.1316 26.1833 20.9887 24.3592C19.6749 23.2112 18.1315 22.3566 16.4732 21.8464C15.2487 21.4765 13.9859 21.2852 12.7104 21.2852C9.54702 21.2852 6.49845 22.4714 4.15144 24.6016C-1.04004 29.3211 -1.40995 37.3698 3.30958 42.5613C8.02911 47.7528 16.0778 48.1355 21.2693 43.4032C23.9225 41.0051 25.4404 37.5867 25.4276 34.0024C25.4276 33.1478 25.3383 32.2804 25.1725 31.4385ZM12.7231 42.4082C8.08013 42.4082 4.30451 38.6326 4.30451 33.9896C4.30451 29.3466 8.06738 25.571 12.7231 25.571C17.3661 25.5838 21.129 29.3466 21.1418 33.9896C21.1418 38.6326 17.3661 42.4082 12.7231 42.4082Z" fill="#F6892F"/>
<path d="M30.3637 37.0891L30.3127 32.8415C30.2872 32.7522 30.2617 32.663 30.2489 32.5737C29.4453 32.5609 28.6672 32.5354 27.9147 32.4844C27.9529 32.9946 27.9784 33.4921 27.9784 33.9895C27.9784 34.9844 27.8764 35.9921 27.6851 36.9743C28.5397 37.0381 29.4453 37.0763 30.3637 37.0891Z" fill="#F6892F"/>
<path d="M55.5306 30.201C52.9413 29.4102 49.3697 28.9893 45.7217 28.9893H45.6196C42.2011 28.9893 38.9485 29.3719 36.4484 30.0735C33.9611 30.7623 33.0044 31.5403 32.7876 31.9358C32.8259 32.0506 32.8514 32.1654 32.8514 32.2802C33.1575 32.7138 34.1907 33.4664 36.5887 34.1169C39.0888 34.793 42.3415 35.1756 45.7217 35.1756C49.357 35.1756 52.8137 34.7547 55.4286 33.9766C58.2603 33.1348 58.8853 32.2546 58.8981 32.0633V32.0506C58.8598 31.8337 58.2093 31.0174 55.5306 30.201Z" fill="#F6892F"/>
<path d="M56.2194 43.4674C53.3622 44.3348 49.6631 44.8067 45.7216 44.8067C42.2394 44.8067 38.8592 44.4241 36.1805 43.7225C35.0835 43.4546 34.0248 43.072 33.0044 42.5745L33.0427 45.4572L33.0554 46.2353C33.0554 46.2481 33.0554 46.2481 33.0554 46.2608C33.0554 46.5415 33.8718 47.3833 36.3081 48.1359C38.8719 48.914 42.3031 49.3477 45.9895 49.3477C49.6631 49.3477 53.107 48.9012 55.7092 48.0976C58.4261 47.2558 58.9873 46.3756 58.9873 46.1971V42.3066C58.222 42.8041 57.1505 43.1868 56.2194 43.4674Z" fill="#F6892F"/>
<path d="M56.1301 36.4264C53.2856 37.2682 49.5993 37.7274 45.7216 37.7274C40.9766 37.7274 35.9126 37.0131 32.9023 35.4442L32.9534 39.4749C34.0503 40.6995 38.7699 42.2429 45.7089 42.2429C49.4079 42.2429 52.8774 41.8092 55.4923 41.0184C58.2347 40.1765 58.8215 39.3091 58.8215 39.1305C58.8215 38.8754 58.9873 38.6458 59.0001 38.4545V35.2656C58.0817 35.7631 57.125 36.1458 56.1301 36.4264Z" fill="#F6892F"/>
<path d="M41.4612 24.1813C38.604 25.0487 34.8667 25.5206 30.9252 25.5206C28.9991 25.5206 27.0603 25.3931 25.147 25.1507C26.1674 26.5921 26.9455 28.1993 27.4174 29.8958C28.5144 29.9851 29.6879 30.0361 30.9252 30.0361C30.9635 30.0361 30.989 30.0361 31.0273 30.0361C31.9201 29.0412 33.4891 28.2248 35.734 27.587C38.1193 26.911 41.1168 26.5028 44.3057 26.4135V23.0078C43.4001 23.5053 42.4562 23.9007 41.4612 24.1813Z" fill="#F6892F"/>
</g>
<defs>
<clipPath id="clip0">
<rect width="59" height="59" fill="white"/>
</clipPath>
</defs>
</svg>
