<svg width="51" height="51" viewBox="0 0 51 51" fill="none" xmlns="http://www.w3.org/2000/svg">
<g clip-path="url(#clip0)">
<path d="M25.5 12.75C18.4684 12.75 12.75 18.4684 12.75 25.5C12.75 32.5316 18.4684 38.25 25.5 38.25C32.5316 38.25 38.25 32.5316 38.25 25.5C38.25 18.4684 32.5316 12.75 25.5 12.75ZM31.875 27.625H19.125C17.952 27.625 17 26.673 17 25.5C17 24.327 17.952 23.375 19.125 23.375H31.875C33.048 23.375 34 24.327 34 25.5C34 26.673 33.048 27.625 31.875 27.625Z" fill="#F6892F"/>
<path d="M3.1875 25.4997C3.1875 13.1981 13.1962 3.18724 25.5 3.18724C29.9179 3.18724 34.1169 4.47712 37.6805 6.81462L34.4675 10.0297C33.4645 11.0285 34.1721 12.7497 35.5937 12.7497H45.1562C46.036 12.7497 46.75 12.0357 46.75 11.156V1.59349C46.75 0.18037 45.0372 -0.540005 44.03 0.467245L39.9627 4.53449C35.7744 1.62537 30.7785 -0.000254723 25.5 -0.000254723C11.4389 -0.000254723 0 11.4386 0 25.4997C0 27.9924 0.367625 30.4701 1.09012 32.865C1.343 33.7044 2.22487 34.1846 3.077 33.9317C3.9185 33.6767 4.39662 32.7885 4.14162 31.9449C3.50837 29.8475 3.1875 27.68 3.1875 25.4997Z" fill="#F6892F"/>
<path d="M49.91 18.1351C49.655 17.2915 48.7731 16.8113 47.9231 17.0684C47.0816 17.3234 46.6035 18.2116 46.8585 19.0553C47.4917 21.1526 47.8126 23.3202 47.8126 25.5004C47.8126 37.802 37.8038 47.8129 25.5001 47.8129C21.0907 47.8129 16.8981 46.5294 13.3408 44.2004L16.539 40.9662C17.5335 39.9589 16.8195 38.2504 15.4063 38.2504H5.84383C5.41883 38.2504 5.0087 38.4204 4.7112 38.7243C4.4137 39.0282 4.24583 39.4362 4.25008 39.8612L4.35633 49.4237C4.36908 50.8389 6.0967 51.5274 7.0827 50.5266L11.0735 46.4912C15.2533 49.3854 20.2365 51.0004 25.5001 51.0004C39.5612 51.0004 51.0001 39.5615 51.0001 25.5004C51.0001 23.0078 50.6325 20.53 49.91 18.1351Z" fill="#F6892F"/>
<ellipse cx="25.5" cy="25.4996" rx="9.67241" ry="9.67241" fill="#F6892F"/>
<path fill-rule="evenodd" clip-rule="evenodd" d="M29.7277 21.4313C29.9388 21.2221 30.2237 21.1043 30.5209 21.1035C30.818 21.1027 31.1036 21.2189 31.3158 21.4269C31.528 21.635 31.6498 21.9182 31.6549 22.2153C31.66 22.5125 31.5479 22.7997 31.3429 23.0148L25.3225 30.5403C25.219 30.6518 25.0941 30.7412 24.9553 30.8033C24.8165 30.8654 24.6665 30.8988 24.5145 30.9017C24.3625 30.9045 24.2114 30.8766 24.0704 30.8197C23.9293 30.7628 23.8012 30.678 23.6937 30.5705L19.7047 26.58C19.5936 26.4765 19.5045 26.3516 19.4426 26.2129C19.3808 26.0741 19.3476 25.9243 19.3449 25.7725C19.3422 25.6206 19.3702 25.4697 19.427 25.3289C19.4839 25.1881 19.5686 25.0601 19.676 24.9527C19.7834 24.8453 19.9114 24.7606 20.0522 24.7037C20.193 24.6469 20.3439 24.6189 20.4958 24.6216C20.6476 24.6243 20.7974 24.6575 20.9362 24.7193C21.0749 24.7812 21.1998 24.8703 21.3033 24.9814L24.4613 28.1379L29.699 21.4645C29.7084 21.4528 29.7185 21.4417 29.7292 21.4313H29.7277Z" fill="#414042"/>
</g>
<defs>
<clipPath id="clip0">
<rect width="51" height="51" fill="white"/>
</clipPath>
</defs>
</svg>
