<svg width="32" height="30" viewBox="0 0 32 30" fill="none" xmlns="http://www.w3.org/2000/svg">
<path d="M32 16.5C32 13.8961 30.1531 11.7581 27.8214 11.5765C27.5448 10.6444 26.7976 9.91313 25.856 9.65944C25.2281 4.498 21.0369 0.5625 16 0.5625C10.9631 0.5625 6.77187 4.498 6.14406 9.65944C5.2025 9.91313 4.45519 10.6444 4.17869 11.5765C4.09769 11.5828 4.01731 11.5915 3.93756 11.6025V5.5C3.93756 4.98225 3.51781 4.5625 3.00006 4.5625C2.48231 4.5625 2.06256 4.98225 2.06256 5.5V12.3529C0.82275 13.2331 0 14.7626 0 16.5C0 19.1039 1.84688 21.2419 4.17863 21.4235C4.45431 22.3526 5.19769 23.0821 6.13506 23.338C6.53444 25.6626 8.56319 27.4375 11 27.4375H11.2168C11.6091 28.5987 12.7081 29.4375 14 29.4375H18C19.6198 29.4375 20.9375 28.1198 20.9375 26.5C20.9375 24.8802 19.6198 23.5625 18 23.5625H14C12.7081 23.5625 11.6091 24.4013 11.2168 25.5625H11C9.58231 25.5625 8.38688 24.594 8.03963 23.284C9.14262 22.9035 9.9375 21.8556 9.9375 20.625V12.375C9.9375 11.1401 9.13713 10.0892 8.02812 9.71212C8.61375 5.57113 11.9748 2.4375 16 2.4375C20.0252 2.4375 23.3862 5.57113 23.9719 9.71212C22.8629 10.0892 22.0625 11.1401 22.0625 12.375V20.625C22.0625 22.1758 23.3242 23.4375 24.875 23.4375H25.125C26.3984 23.4375 27.4763 22.5865 27.8214 21.4235C30.1531 21.2419 32 19.1039 32 16.5ZM14 25.4375H18C18.5859 25.4375 19.0625 25.9141 19.0625 26.5C19.0625 27.0859 18.5859 27.5625 18 27.5625H14C13.4141 27.5625 12.9375 27.0859 12.9375 26.5C12.9375 25.9141 13.4141 25.4375 14 25.4375ZM1.875 16.5C1.875 15.0133 2.83906 13.7332 4.0625 13.4821V19.5179C2.83906 19.2668 1.875 17.9867 1.875 16.5ZM8.0625 20.625C8.0625 21.1419 7.64194 21.5625 7.125 21.5625H6.875C6.35806 21.5625 5.9375 21.1419 5.9375 20.625C5.9375 17.6166 5.9375 15.156 5.9375 12.375C5.9375 11.8581 6.35806 11.4375 6.875 11.4375H7.125C7.64194 11.4375 8.0625 11.8581 8.0625 12.375V20.625ZM26.0625 20.625C26.0625 21.1419 25.6419 21.5625 25.125 21.5625H24.875C24.3581 21.5625 23.9375 21.1419 23.9375 20.625V12.375C23.9375 11.8581 24.3581 11.4375 24.875 11.4375H25.125C25.6419 11.4375 26.0625 11.8581 26.0625 12.375V20.625ZM27.9375 19.5179V13.4821C29.1609 13.7333 30.125 15.0134 30.125 16.5001C30.125 17.9867 29.1609 19.2667 27.9375 19.5179Z" fill="#F6892F"/>
</svg>
