<svg width="32" height="32" viewBox="0 0 32 32" fill="none" xmlns="http://www.w3.org/2000/svg">
<g clip-path="url(#clip0)">
<path d="M4.75 32H27.25C29.3179 32 31 30.3179 31 28.25V22.625H25.375V0H1V28.25C1 30.3179 2.68213 32 4.75 32ZM29.125 24.5V28.25C29.125 29.2839 28.2839 30.125 27.25 30.125C26.2161 30.125 25.375 29.2839 25.375 28.25V24.5H29.125ZM2.875 1.875H23.5V28.25C23.5 28.9329 23.6843 29.573 24.0044 30.125H4.75C3.71606 30.125 2.875 29.2839 2.875 28.25V1.875Z" fill="#F6892F" stroke="#4D4C4E" stroke-width="0.4"/>
<path d="M4.75 22.625H21.625V24.5H4.75V22.625Z" fill="#F6892F" stroke="#4D4C4E" stroke-width="0.4"/>
<path d="M4.75 26.375H21.625V28.25H4.75V26.375Z" fill="#F6892F" stroke="#4D4C4E" stroke-width="0.4"/>
<path d="M21.9341 10.4744L18.344 5.6875H8.03149L4.44141 10.4744L13.1877 18.925L21.9341 10.4744ZM9.7334 11.3125L10.7693 13.981L8.00732 11.3125H9.7334ZM18.3682 11.3125L15.6245 13.9634L16.644 11.3125H18.3682ZM14.6353 11.3125L13.1965 15.053L11.7446 11.3125H14.6353ZM11.8921 9.4375L12.8296 7.5625H13.5459L14.4834 9.4375H11.8921ZM18.8127 9.4375H16.5796L15.6421 7.5625H17.4065L18.8127 9.4375ZM8.96899 7.5625H10.7334L9.7959 9.4375H7.56274L8.96899 7.5625Z" fill="#F6892F" stroke="#4D4C4E" stroke-width="0.4"/>
</g>
<defs>
<clipPath id="clip0">
<rect width="32" height="32" fill="white"/>
</clipPath>
</defs>
</svg>
