<svg width="27" height="29" viewBox="0 0 27 29" fill="none" xmlns="http://www.w3.org/2000/svg">
<g clip-path="url(#clip0)">
<path d="M19.1519 5.29L20.4366 3.97868C20.6365 3.77474 20.9277 3.69503 21.2007 3.76974L22.9557 4.24969C23.2287 4.32434 23.4419 4.54195 23.515 4.82054L23.9852 6.6118C24.0584 6.8904 23.9803 7.18772 23.7805 7.39166L22.4958 8.70302C22.2963 8.90664 22.0053 8.98678 21.7317 8.91197L19.9767 8.43202C19.7037 8.35737 19.4905 8.13976 19.4174 7.86116L18.9472 6.0699C18.874 5.79131 18.9521 5.49399 19.1519 5.29ZM20.8273 6.99293L21.7 7.23159L22.3389 6.57956L22.1051 5.68883L21.2324 5.45012L20.5935 6.1022L20.8273 6.99293Z" fill="#F6892F"/>
<path d="M3.14651 21.6259L4.43127 20.3146C4.63103 20.1106 4.92244 20.031 5.19529 20.1056L6.95029 20.5856C7.22329 20.6602 7.4365 20.8778 7.50964 21.1564L7.97987 22.9477C8.05302 23.2263 7.97492 23.5236 7.77511 23.7275L6.49034 25.0389C6.29127 25.242 6.00033 25.3228 5.72627 25.2478L3.97127 24.7679C3.69832 24.6932 3.48511 24.4756 3.41197 24.197L2.94174 22.4057C2.8686 22.1271 2.9467 21.8298 3.14651 21.6259ZM4.82193 23.3288L5.69468 23.5675L6.33351 22.9154L6.09968 22.0247L5.22693 21.786L4.58811 22.438L4.82193 23.3288Z" fill="#F6892F"/>
<path d="M5.53726 16.9167C5.84898 16.9167 6.1629 16.9489 6.50183 17.0166L9.02554 14.4408L6.51332 11.8767C4.74235 12.1979 2.90434 11.6186 1.62184 10.3095C-0.0349121 8.61848 -0.469812 6.03326 0.53968 3.87643C0.650423 3.63992 0.866634 3.47302 1.11971 3.42872C1.37294 3.38431 1.63123 3.46823 1.81279 3.6536L3.8592 5.74229C4.1677 6.05716 4.66941 6.0571 4.97791 5.74229C5.28635 5.42747 5.28635 4.91528 4.97791 4.60047L2.93145 2.51172C2.74988 2.32641 2.66772 2.06267 2.71112 1.80437C2.75452 1.54607 2.91811 1.32533 3.14977 1.21236C5.26294 0.181952 7.79593 0.625784 9.45269 2.31682C10.7353 3.62593 11.3029 5.50223 10.9881 7.30937L13.5003 9.87354L16.0126 7.30937C15.6979 5.50223 16.2654 3.62588 17.548 2.31682C19.7069 0.113273 23.2199 0.113273 25.3787 2.31682C27.5377 4.52038 27.5377 8.10597 25.3787 10.3095C24.0961 11.6186 22.2579 12.1979 20.4874 11.8766L17.9751 14.4407L20.4873 17.0049C22.258 16.6837 24.0963 17.263 25.3788 18.5721C27.0356 20.2631 27.4704 22.8483 26.4609 25.0051C26.3502 25.2416 26.1339 25.4085 25.8809 25.4528C25.6278 25.4971 25.3694 25.4133 25.1878 25.228L23.1414 23.1393C22.833 22.8244 22.3312 22.8244 22.0227 23.1393C21.7143 23.4541 21.7143 23.9663 22.0227 24.2811L24.0691 26.3698C24.2507 26.5551 24.3328 26.8188 24.2894 27.0771C24.246 27.3354 24.0825 27.5562 23.8508 27.6691C21.7288 28.7038 19.1976 28.2484 17.548 26.5646C16.2654 25.2555 15.6979 23.3792 16.0125 21.5721L13.5003 19.008L10.9766 21.5837C11.0429 21.9296 11.0744 22.2501 11.0744 22.5682C11.0744 25.6845 8.59043 28.2199 5.53721 28.2199C2.484 28.2199 -1.90735e-06 25.6845 -1.90735e-06 22.5682C-1.90735e-06 19.4519 2.484 16.9167 5.53726 16.9167ZM19.675 10.4222C19.8747 10.2184 20.1657 10.1387 20.4385 10.213C21.8004 10.5842 23.2647 10.1837 24.2601 9.16775C25.8022 7.59372 25.8022 5.03267 24.2601 3.4587C22.718 1.88473 20.2088 1.88473 18.6666 3.4587C17.6713 4.47463 17.2788 5.96932 17.6425 7.35937C17.7154 7.6378 17.6373 7.93475 17.4376 8.13858L14.619 11.0154L16.8564 13.299L19.675 10.4222ZM14.0595 17.2953C14.0595 17.2953 14.0596 17.2953 14.0596 17.2953C14.0597 17.2953 14.0597 17.2954 14.0597 17.2954L17.4376 20.7431C17.6373 20.9468 17.7154 21.2438 17.6425 21.5223C17.2789 22.9123 17.6713 24.407 18.6666 25.423C19.5613 26.3361 20.8134 26.7401 22.0232 26.5653L20.904 25.423C19.9787 24.4786 19.9787 22.9419 20.904 21.9975C21.8292 21.0532 23.3348 21.0532 24.2601 21.9975L25.3793 23.1399C25.5506 21.9051 25.1547 20.6271 24.2601 19.714C23.2647 18.698 21.8003 18.2974 20.4384 18.6687C20.1654 18.7431 19.8746 18.6634 19.6749 18.4595L16.2971 15.012C16.2971 15.012 16.297 15.0119 16.297 15.0118C16.2969 15.0118 16.2969 15.0117 16.2968 15.0117L12.941 11.5865C12.941 11.5865 12.9409 11.5864 12.9409 11.5864C12.9408 11.5864 12.9408 11.5864 12.9408 11.5863L9.5629 8.13869C9.36325 7.93491 9.2851 7.63797 9.35797 7.35948C9.72163 5.96942 9.32924 4.47479 8.33387 3.45881C7.43924 2.54568 6.18716 2.14141 4.97733 2.31645L6.09651 3.45881C7.02179 4.40315 7.02179 5.93982 6.09651 6.88422C5.16913 7.83082 3.66794 7.83092 2.74044 6.88422L1.62121 5.74186C1.44988 6.97669 1.84581 8.25468 2.74044 9.1678C3.73581 10.1837 5.2004 10.5843 6.56216 10.2131C6.83495 10.1387 7.12589 10.2184 7.32559 10.4222L10.7034 13.8698C10.7034 13.8698 10.7035 13.8699 10.7035 13.8699C10.7036 13.87 10.7036 13.87 10.7037 13.8701L14.0595 17.2953ZM5.53726 26.6053C7.71815 26.6053 9.49245 24.7943 9.49245 22.5683C9.49245 22.2574 9.44488 21.9296 9.34263 21.5368C9.27023 21.2586 9.34838 20.9621 9.54782 20.7586L12.3817 17.8662L10.1443 15.5826L7.31046 18.475C7.11112 18.6785 6.82082 18.7583 6.54808 18.6844C6.16322 18.5801 5.84202 18.5315 5.53737 18.5315C3.35649 18.5315 1.58219 20.3425 1.58219 22.5684C1.58213 24.7943 3.35633 26.6053 5.53726 26.6053Z" fill="#F6892F"/>
</g>
<defs>
<clipPath id="clip0">
<rect width="27" height="27.5579" fill="white" transform="matrix(-1 0 0 1 27 0.661133)"/>
</clipPath>
</defs>
</svg>
